<svg width="200" height="50" viewBox="0 0 200 50" fill="none" xmlns="http://www.w3.org/2000/svg">
  <!-- Botanical icon -->
  <g transform="translate(5, 5)">
    <!-- Left leaf -->
    <path d="M15 20C15 14 11 9 6 9C6 9 6 13 6 17C6 23 10 28 15 28C15 28 15 24 15 20Z" 
          fill="#526952" opacity="0.5"/>
    <!-- Right leaf -->
    <path d="M25 20C25 14 29 9 34 9C34 9 34 13 34 17C34 23 30 28 25 28C25 28 25 24 25 20Z" 
          fill="#526952" opacity="0.5"/>
    <!-- Stem -->
    <line x1="20" y1="10" x2="20" y2="30" stroke="#526952" stroke-width="2.5" stroke-linecap="round"/>
    <!-- Small leaves on stem -->
    <line x1="20" y1="16" x2="16" y2="14" stroke="#526952" stroke-width="1.5" stroke-linecap="round" opacity="0.6"/>
    <line x1="20" y1="16" x2="24" y2="14" stroke="#526952" stroke-width="1.5" stroke-linecap="round" opacity="0.6"/>
  </g>

  <!-- Text -->
  <g transform="translate(55, 0)">
    <!-- HOTEL -->
    <text x="0" y="20" font-family="Georgia, serif" font-size="12" font-weight="500" 
          fill="#2C2C2C" letter-spacing="2" opacity="0.9">HOTEL</text>
    <!-- BOTÁNICO -->
    <text x="0" y="37" font-family="Georgia, serif" font-size="16" font-weight="700" 
          fill="#2C2C2C" letter-spacing="0.5">BOTÁNICO</text>
  </g>
</svg>
