<svg width="32" height="32" viewBox="0 0 40 40" fill="none" xmlns="http://www.w3.org/2000/svg">
  <style>
    .leaf { fill: #526952; opacity: 0.6; }
    .stem { stroke: #526952; }
    .small-leaf { stroke: #526952; opacity: 0.7; }

    @media (prefers-color-scheme: dark) {
    .leaf { fill: #e8e4df; opacity: 0.5; }
    .stem { stroke: #e8e4df; }
    .small-leaf { stroke: #e8e4df; opacity: 0.6; }
    }
  </style>

  <!-- Left leaf -->
  <path class="leaf" d="M15 20C15 14 11 9 6 9C6 9 6 13 6 17C6 23 10 28 15 28C15 28 15 24 15 20Z" />
  <!-- Right leaf -->
  <path class="leaf"
    d="M25 20C25 14 29 9 34 9C34 9 34 13 34 17C34 23 30 28 25 28C25 28 25 24 25 20Z" />
  <!-- Stem -->
  <line class="stem" x1="20" y1="10" x2="20" y2="30" stroke-width="2.5" stroke-linecap="round" />
  <!-- Small leaves on stem -->
  <line class="small-leaf" x1="20" y1="16" x2="16" y2="14" stroke-width="1.5" stroke-linecap="round" />
  <line class="small-leaf" x1="20" y1="16" x2="24" y2="14" stroke-width="1.5" stroke-linecap="round" />
</svg>